<svg xmlns="http://www.w3.org/2000/svg" xmlns:xlink="http://www.w3.org/1999/xlink" width="20" height="20" viewBox="0 0 20 20"><defs><path id="kgzaa" d="M1158 121c5.523 0 10 4.477 10 10 0 5.522-4.478 10-10 10-5.523 0-10-4.478-10-10 0-5.523 4.477-10 10-10zm.69 11.222l.002-.012v-7.06a.692.692 0 0 0-1.384 0v5.969l-2.848-1.343a.692.692 0 0 0-.59 1.25l3.835 1.81.012.004a.743.743 0 0 0 .103.035l.036.011a.688.688 0 0 0 .118.013l.025.002a.69.69 0 0 0 .252-.048l.024-.009a.641.641 0 0 0 .103-.056l.024-.017a.633.633 0 0 0 .073-.06l.022-.022a.69.69 0 0 0 .129-.184l.004-.012c.01-.023.018-.048.025-.072.007-.02.014-.04.019-.06.005-.02.006-.04.008-.06.004-.026.008-.053.008-.079z"/></defs><g><g transform="translate(-1148 -121)"><use fill="#c8c8c8" xlink:href="#kgzaa"/></g></g></svg>