<svg xmlns="http://www.w3.org/2000/svg" width="42" height="17" viewBox="0 0 42 17">
  <defs>
    <style>
      .cls-1 {
        fill: #fff;
        fill-rule: evenodd;
      }
    </style>
  </defs>
  <path id="Фигура_16" data-name="Фигура 16" class="cls-1" d="M1475.75,509.589H1508v4.636a0.746,0.746,0,0,0,.22.543,0.752,0.752,0,0,0,1.07.013l7.5-7.727a0.838,0.838,0,0,0,0-1.11l-7.48-7.7a0.866,0.866,0,0,0-.56-0.241,0.717,0.717,0,0,0-.54.217,0.765,0.765,0,0,0-.21.556v4.636h-32.25a0.722,0.722,0,0,0-.53.228,0.749,0.749,0,0,0-.22.544v4.635a0.746,0.746,0,0,0,.22.544,0.727,0.727,0,0,0,.53.229h0Zm0,0" transform="translate(-1475 -498)"/>
</svg>
