<svg xmlns="http://www.w3.org/2000/svg" width="42" height="17" viewBox="0 0 42 17">
  <path fill="#fff" d="M425.25,509.589H393v4.636a0.752,0.752,0,0,1-.222.543,0.747,0.747,0,0,1-1.066.013l-7.5-7.727A0.768,0.768,0,0,1,384,506.5a0.759,0.759,0,0,1,.213-0.554l7.475-7.7a0.873,0.873,0,0,1,.563-0.241,0.713,0.713,0,0,1,.538.217,0.766,0.766,0,0,1,.211.556v4.636H425.25a0.7,0.7,0,0,1,.527.228,0.756,0.756,0,0,1,.223.544v4.635a0.752,0.752,0,0,1-.223.544,0.709,0.709,0,0,1-.527.229h0Zm0,0" transform="translate(-384 -498)"/>
</svg>
