<svg xmlns="http://www.w3.org/2000/svg" xmlns:xlink="http://www.w3.org/1999/xlink" width="24" height="22" viewBox="0 0 24 22"><defs><path id="5foba" d="M1507.478 126.836c.288 0 .522.229.522.511a.517.517 0 0 1-.522.511h-.557l-1.585 9.503c-.322 2.143-2.017 3.639-4.123 3.639h-10.714c-2.106 0-3.801-1.496-4.123-3.64l-1.585-9.502h-.269a.517.517 0 0 1-.522-.51c0-.283.234-.512.522-.512h.627a.54.54 0 0 1 .17 0h.816l2.422-3.031a2.707 2.707 0 0 1-.407-3.676c.852-1.145 2.454-1.467 3.699-.744a2.717 2.717 0 0 1 1.105 3.536c-.618 1.28-2.13 1.892-3.491 1.41l-2.002 2.505h16.79l-2.002-2.505c-1.351.476-2.85-.132-3.462-1.403a2.697 2.697 0 0 1 1.098-3.508c1.234-.718 2.824-.398 3.67.737a2.687 2.687 0 0 1-.4 3.648l2.422 3.03h.816a.54.54 0 0 1 .17 0h.915zm-15.13 3.893a.517.517 0 0 0-.522-.511.517.517 0 0 0-.522.51v6.379c0 .282.234.511.522.511a.517.517 0 0 0 .522-.511zm4.03 0a.517.517 0 0 0-.522-.511.517.517 0 0 0-.522.51v6.379c0 .282.233.511.522.511a.517.517 0 0 0 .522-.511zm4.03 0a.517.517 0 0 0-.522-.511.517.517 0 0 0-.522.51v6.379c0 .282.234.511.522.511a.517.517 0 0 0 .522-.511z"/></defs><g><g transform="translate(-1484 -119)"><use fill="#c8c8c8" xlink:href="#5foba"/></g></g></svg>