<svg xmlns="http://www.w3.org/2000/svg" xmlns:xlink="http://www.w3.org/1999/xlink" width="20" height="20" viewBox="0 0 20 20"><defs><path id="t2x0a" d="M113.949 324.274v-14.028a2.671 2.671 0 0 1-1.949-2.572 2.662 2.662 0 0 1 2.656-2.674 2.676 2.676 0 0 1 .69 5.262v14.012a.7.7 0 0 1-.708.708.7.7 0 0 1-.706-.708zm-.57-16.6c0 .691.57 1.26 1.26 1.26.69 0 1.258-.569 1.258-1.26 0-.69-.568-1.26-1.259-1.26-.69 0-1.259.57-1.259 1.26zm8.605-2.674a.7.7 0 0 1 .708.708v7.246a2.688 2.688 0 0 1 1.983 2.589 2.686 2.686 0 0 1-1.983 2.588v6.16a.7.7 0 0 1-.708.708.7.7 0 0 1-.707-.708v-6.16a2.67 2.67 0 0 1 0-5.142v-7.281a.7.7 0 0 1 .707-.708zm1.294 10.56c0-.707-.57-1.26-1.26-1.26-.689 0-1.258.57-1.258 1.26 0 .69.57 1.26 1.259 1.26.69 0 1.259-.57 1.259-1.26zm6.76 4.176c1.137.311 1.982 1.346 1.965 2.57a2.665 2.665 0 0 1-2.673 2.676 2.676 2.676 0 0 1-2.673-2.675c0-1.225.828-2.26 1.966-2.571v-14.028a.7.7 0 0 1 .707-.708.7.7 0 0 1 .707.708zm-.69 3.83c.69 0 1.258-.569 1.258-1.26 0-.69-.569-1.26-1.259-1.26s-1.258.57-1.258 1.26c0 .691.569 1.26 1.258 1.26z"/></defs><g><g transform="translate(-112 -305)"><use fill="#484848" xlink:href="#t2x0a"/></g></g></svg>