<svg xmlns="http://www.w3.org/2000/svg" xmlns:xlink="http://www.w3.org/1999/xlink" width="24" height="24" viewBox="0 0 24 24"><defs><path id="uqgna" d="M105.142 136.615v-21.23h21.716v21.23zm14.21-18.32c-3.049-3.048-8.011-3.048-11.06 0-3.046 3.05-3.046 8.009 0 11.058 2.717 2.714 6.943 3.004 9.989.884.065.303.213.594.448.83l4.436 4.439a1.653 1.653 0 0 0 2.337-2.336l-4.437-4.44a1.646 1.646 0 0 0-.829-.445c2.12-3.05 1.83-7.276-.884-9.99zm-9.657 9.658a5.85 5.85 0 0 1 0-8.257 5.845 5.845 0 0 1 8.253 0 5.85 5.85 0 0 1 0 8.257 5.845 5.845 0 0 1-8.253 0z"/><path id="uqgnb" d="M119.352 118.296c2.713 2.713 3.004 6.94.884 9.99.304.064.593.209.829.444l4.437 4.44a1.653 1.653 0 0 1-2.337 2.336l-4.436-4.44a1.663 1.663 0 0 1-.448-.829c-3.046 2.12-7.272 1.83-9.989-.884-3.046-3.05-3.046-8.008 0-11.057 3.049-3.05 8.011-3.05 11.06 0zm-1.404 9.657a5.85 5.85 0 0 0 0-8.257 5.845 5.845 0 0 0-8.253 0 5.85 5.85 0 0 0 0 8.257 5.845 5.845 0 0 0 8.253 0z"/><clipPath id="uqgnc"><use fill="#fff" xlink:href="#uqgna"/></clipPath></defs><g><g transform="translate(-104 -114)"><use fill="#c8c8c8" xlink:href="#uqgnb"/><use fill="#fff" fill-opacity="0" stroke="#f8f3f1" stroke-linecap="round" stroke-linejoin="round" stroke-miterlimit="50" stroke-width="4" clip-path="url(&quot;#uqgnc&quot;)" xlink:href="#uqgnb"/></g></g></svg>