<svg xmlns="http://www.w3.org/2000/svg" xmlns:xlink="http://www.w3.org/1999/xlink" width="24" height="24" viewBox="0 0 24 24"><defs><path id="urjna" d="M422 1387.703v22.594a.703.703 0 0 1-.703.703h-22.594a.703.703 0 0 1-.703-.703v-22.594c0-.388.315-.703.703-.703h22.594c.388 0 .703.315.703.703zm-13.556.703v4.619h3.112v-4.619zm12.15 0h-7.632v5.322a.703.703 0 0 1-.703.703h-4.518a.703.703 0 0 1-.704-.703v-5.322h-7.63v21.188h21.187zm-6.075 11.02a2.966 2.966 0 0 1 2.962 2.963 2.966 2.966 0 0 1-2.962 2.962H410a.703.703 0 0 1 0-1.406h4.519c.858 0 1.556-.698 1.556-1.556 0-.858-.698-1.556-1.556-1.556h-9.6l1.06 1.059a.703.703 0 1 1-.995.994l-2.26-2.26a.703.703 0 0 1 0-.994l2.26-2.259a.703.703 0 1 1 .994.994l-1.059 1.06z"/></defs><g><g transform="translate(-398 -1387)"><use fill="#5f9fb3" xlink:href="#urjna"/></g></g></svg>