<svg xmlns="http://www.w3.org/2000/svg" xmlns:xlink="http://www.w3.org/1999/xlink">
  <symbol id="vk" viewBox="0 0 16 9">
    <path d="M409.828 634.87h.956s.29-.032.436-.187c.137-.142.131-.41.131-.41s-.019-1.251.577-1.436c.588-.182 1.341 1.21 2.14 1.746.605.405 1.064.316 1.064.316l2.137-.03s1.118-.067.588-.924c-.043-.07-.31-.635-1.59-1.794-1.34-1.214-1.16-1.016.455-3.116.983-1.278 1.376-2.058 1.253-2.392-.117-.318-.84-.234-.84-.234l-2.404.013s-.178-.023-.311.054c-.13.076-.212.252-.212.252s-.381.99-.89 1.83c-1.07 1.775-1.5 1.869-1.674 1.759-.408-.257-.306-1.033-.306-1.583 0-1.72.268-2.438-.52-2.623-.263-.062-.455-.102-1.124-.11-.858-.008-1.585.004-1.996.2-.274.13-.485.422-.356.439.16.02.52.095.71.348.247.327.238 1.063.238 1.063s.142 2.025-.33 2.276c-.326.173-.77-.18-1.726-1.79-.489-.825-.859-1.737-.859-1.737s-.07-.17-.198-.26c-.154-.111-.37-.146-.37-.146l-2.286.014s-.343.01-.469.155c-.112.13-.009.397-.009.397s1.79 4.086 3.816 6.145c1.86 1.889 3.97 1.765 3.97 1.765z" transform="translate(-402 -626)"/>
  </symbol>
  <symbol id="in" viewBox="0 0 17 17">
    <path d="M469 626.312v6.375a5.313 5.313 0 0 1-5.313 5.313h-6.375a5.313 5.313 0 0 1-5.312-5.313v-6.375a5.313 5.313 0 0 1 5.312-5.312h6.375a5.313 5.313 0 0 1 5.313 5.312zm-1.594 0a3.723 3.723 0 0 0-3.719-3.719h-6.375a3.723 3.723 0 0 0-3.719 3.72v6.374a3.723 3.723 0 0 0 3.72 3.719h6.374a3.723 3.723 0 0 0 3.719-3.719zm-2.656 3.188a4.25 4.25 0 1 1-8.5 0 4.25 4.25 0 0 1 8.5 0zm-1.594 0a2.66 2.66 0 0 0-2.656-2.657 2.66 2.66 0 0 0-2.657 2.657 2.66 2.66 0 0 0 2.657 2.656 2.66 2.66 0 0 0 2.656-2.656zm1.913-5.135a.566.566 0 1 1 0 1.132.566.566 0 0 1 0-1.132z" transform="translate(-452 -621)"/>
  </symbol>
  <symbol id="twitter" viewBox="0 0 512 416">
    <path d="M512 49.248a218.842 218.842 0 0 1-60.48 16.576A104.375 104.375 0 0 0 497.7 7.808a209.767 209.767 0 0 1-66.56 25.408 104.957 104.957 0 0 0-181.568 71.776A108.081 108.081 0 0 0 252 128.928c-87.264-4.256-164.48-46.08-216.352-109.792A104.992 104.992 0 0 0 67.9 159.424 103.659 103.659 0 0 1 20.48 146.5v1.152a105.447 105.447 0 0 0 84.1 103.136 104.763 104.763 0 0 1-27.52 3.456 92.807 92.807 0 0 1-19.872-1.792c13.6 41.568 52.192 72.128 98.08 73.12A210.907 210.907 0 0 1 25.12 370.336 196.6 196.6 0 0 1 0 368.9 295.5 295.5 0 0 0 161.024 416c193.152 0 298.752-160 298.752-298.688 0-4.64-.16-9.12-.384-13.568A209.4 209.4 0 0 0 512 49.248z"/>
  </symbol>
  <symbol id="clock" viewBox="0 0 20 20">
    <path transform="translate(-1148 -121)" d="M1158 121c5.523 0 10 4.477 10 10 0 5.522-4.478 10-10 10-5.523 0-10-4.478-10-10 0-5.523 4.477-10 10-10zm.69 11.222l.002-.012v-7.06a.692.692 0 0 0-1.384 0v5.969l-2.848-1.343a.692.692 0 0 0-.59 1.25l3.835 1.81.012.004a.743.743 0 0 0 .103.035l.036.011a.688.688 0 0 0 .118.013l.025.002a.69.69 0 0 0 .252-.048l.024-.009a.641.641 0 0 0 .103-.056l.024-.017a.633.633 0 0 0 .073-.06l.022-.022a.69.69 0 0 0 .129-.184l.004-.012c.01-.023.018-.048.025-.072.007-.02.014-.04.019-.06.005-.02.006-.04.008-.06.004-.026.008-.053.008-.079z"/>
  </symbol>
  <symbol id="heart" viewBox="0 0 18 18">
    <path transform="translate(-1436 -124)" d="M1453.973 129.369c-.262-3.109-2.311-5.364-4.876-5.364-1.708 0-3.273.988-4.153 2.57-.872-1.604-2.373-2.57-4.053-2.57-2.566 0-4.615 2.255-4.878 5.364-.021.138-.106.86.153 2.04a8.873 8.873 0 0 0 2.496 4.47l6.278 6.118 6.385-6.117a8.892 8.892 0 0 0 2.496-4.472c.259-1.177.173-1.9.152-2.039z"/>
  </symbol>
  <symbol id="cart" viewBox="0 0 24 22">
    <path transform="translate(-1484 -119)" d="M1507.478 126.836c.288 0 .522.229.522.511a.517.517 0 0 1-.522.511h-.557l-1.585 9.503c-.322 2.143-2.017 3.639-4.123 3.639h-10.714c-2.106 0-3.801-1.496-4.123-3.64l-1.585-9.502h-.269a.517.517 0 0 1-.522-.51c0-.283.234-.512.522-.512h.627a.54.54 0 0 1 .17 0h.816l2.422-3.031a2.707 2.707 0 0 1-.407-3.676c.852-1.145 2.454-1.467 3.699-.744a2.717 2.717 0 0 1 1.105 3.536c-.618 1.28-2.13 1.892-3.491 1.41l-2.002 2.505h16.79l-2.002-2.505c-1.351.476-2.85-.132-3.462-1.403a2.697 2.697 0 0 1 1.098-3.508c1.234-.718 2.824-.398 3.67.737a2.687 2.687 0 0 1-.4 3.648l2.422 3.03h.816a.54.54 0 0 1 .17 0h.915zm-15.13 3.893a.517.517 0 0 0-.522-.511.517.517 0 0 0-.522.51v6.379c0 .282.234.511.522.511a.517.517 0 0 0 .522-.511zm4.03 0a.517.517 0 0 0-.522-.511.517.517 0 0 0-.522.51v6.379c0 .282.233.511.522.511a.517.517 0 0 0 .522-.511zm4.03 0a.517.517 0 0 0-.522-.511.517.517 0 0 0-.522.51v6.379c0 .282.234.511.522.511a.517.517 0 0 0 .522-.511z"/>
  </symbol>
  <symbol id="filter" viewBox="0 0 20 20">
    <path transform="translate(-112 -305)" d="M113.949 324.274v-14.028a2.671 2.671 0 0 1-1.949-2.572 2.662 2.662 0 0 1 2.656-2.674 2.676 2.676 0 0 1 .69 5.262v14.012a.7.7 0 0 1-.708.708.7.7 0 0 1-.706-.708zm-.57-16.6c0 .691.57 1.26 1.26 1.26.69 0 1.258-.569 1.258-1.26 0-.69-.568-1.26-1.259-1.26-.69 0-1.259.57-1.259 1.26zm8.605-2.674a.7.7 0 0 1 .708.708v7.246a2.688 2.688 0 0 1 1.983 2.589 2.686 2.686 0 0 1-1.983 2.588v6.16a.7.7 0 0 1-.708.708.7.7 0 0 1-.707-.708v-6.16a2.67 2.67 0 0 1 0-5.142v-7.281a.7.7 0 0 1 .707-.708zm1.294 10.56c0-.707-.57-1.26-1.26-1.26-.689 0-1.258.57-1.258 1.26 0 .69.57 1.26 1.259 1.26.69 0 1.259-.57 1.259-1.26zm6.76 4.176c1.137.311 1.982 1.346 1.965 2.57a2.665 2.665 0 0 1-2.673 2.676 2.676 2.676 0 0 1-2.673-2.675c0-1.225.828-2.26 1.966-2.571v-14.028a.7.7 0 0 1 .707-.708.7.7 0 0 1 .707.708zm-.69 3.83c.69 0 1.258-.569 1.258-1.26 0-.69-.569-1.26-1.259-1.26s-1.258.57-1.258 1.26c0 .691.569 1.26 1.258 1.26z"/>
  </symbol>
</svg>
