<svg xmlns="http://www.w3.org/2000/svg" xmlns:xlink="http://www.w3.org/1999/xlink" width="17" height="23" viewBox="0 0 17 23"><defs><path id="fwypa" d="M1084 373.324c0 5.696-7.607 14.059-7.93 14.412a.776.776 0 0 1-1.14 0c-.323-.353-7.93-8.716-7.93-14.412 0-4.59 3.813-8.324 8.5-8.324 4.687 0 8.5 3.734 8.5 8.324zm-4.224 0c0-2.31-1.918-4.188-4.276-4.188-2.358 0-4.277 1.879-4.277 4.188 0 2.31 1.919 4.188 4.277 4.188s4.276-1.879 4.276-4.188z"/></defs><g><g transform="translate(-1067 -365)"><use fill="#6cbcd8" xlink:href="#fwypa"/></g></g></svg>