<svg 
 xmlns="http://www.w3.org/2000/svg"
 xmlns:xlink="http://www.w3.org/1999/xlink"
 width="39px" height="39px">
<path fill-rule="evenodd"  fill="rgb(83, 150, 172)"
 d="M25.209,38.992 L25.209,36.708 C25.209,35.436 25.577,34.183 26.184,33.163 L19.495,27.814 L12.806,33.163 C13.413,34.183 13.781,35.436 13.781,36.708 L13.781,38.992 L-0.010,38.992 L-0.010,36.708 C-0.010,34.324 1.218,32.149 3.071,30.921 C4.155,31.639 5.528,32.063 6.924,32.063 C8.320,32.063 9.616,31.639 10.700,30.921 C10.923,31.068 11.103,31.265 11.306,31.436 L18.352,25.803 L18.352,18.357 L12.638,18.357 L12.638,16.073 C12.638,13.689 13.865,11.590 15.719,10.362 C16.803,11.081 18.099,11.504 19.495,11.504 C20.891,11.504 22.187,11.081 23.272,10.362 C25.125,11.590 26.352,13.689 26.352,16.073 L26.352,18.357 L20.638,18.357 L20.638,25.803 L27.685,31.436 C27.888,31.265 28.068,31.068 28.290,30.921 C29.374,31.639 30.671,32.063 32.067,32.063 C33.462,32.063 34.759,31.639 35.843,30.921 C37.696,32.149 39.000,34.324 39.000,36.708 L39.000,38.992 L25.209,38.992 ZM32.067,29.779 C29.545,29.779 27.495,27.730 27.495,25.210 C27.495,22.690 29.545,20.641 32.067,20.641 C34.588,20.641 36.638,22.690 36.638,25.210 C36.638,27.730 34.588,29.779 32.067,29.779 ZM19.495,9.220 C16.974,9.220 14.924,7.171 14.924,4.651 C14.924,2.132 16.974,0.006 19.495,0.006 C22.016,0.006 24.067,2.132 24.067,4.651 C24.067,7.171 22.016,9.220 19.495,9.220 ZM6.924,29.779 C4.403,29.779 2.276,27.730 2.276,25.210 C2.276,22.690 4.403,20.641 6.924,20.641 C9.445,20.641 11.495,22.690 11.495,25.210 C11.495,27.730 9.445,29.779 6.924,29.779 Z"/>
</svg>