<svg xmlns="http://www.w3.org/2000/svg" width="42" height="30" viewBox="0 0 42 30">
  <defs>
    <style>
      .cls-1 {
        fill: #5396ac;
        fill-rule: evenodd;
      }
    </style>
  </defs>
  <path id="Фигура_13" data-name="Фигура 13" class="cls-1" d="M424.936,851.236v17.739l13.781-2.68v-8.643a0.6,0.6,0,0,1,.659-0.6l1.7,0.269a0.6,0.6,0,0,1,.524.6v10.04a0.6,0.6,0,0,1-.467.592l-15.086,3.324a5.177,5.177,0,0,1-2.213,0l-14.924-3.217a0.6,0.6,0,0,1-.469-0.576l-0.258-10.2a0.6,0.6,0,0,1,.539-0.619l12.678-1.142a0.591,0.591,0,0,0,.494-0.372l1.91-4.753a0.589,0.589,0,0,1,1.137.23h0Zm-16.9-5.807-3.978,8.713a0.6,0.6,0,0,0,.594.86l14.941-1.547a0.593,0.593,0,0,0,.48-0.357l4.807-11.1-16.416,3.09a0.592,0.592,0,0,0-.428.339h0ZM424.879,842l5.087,11.445a0.591,0.591,0,0,0,.49.352l14.912,1.229a0.6,0.6,0,0,0,.585-0.855l-3.889-8.736a0.592,0.592,0,0,0-.433-0.345Zm0,0" transform="translate(-404 -842)"/>
</svg>
