<svg xmlns="http://www.w3.org/2000/svg" width="26" height="63" viewBox="0 0 210.9 512" transform='scale(-1 1)'>
  <style>
    .st0{fill:#6cbcd8;}
  </style>
  <g>
    <path class="st0" d="M141.3 376.7l-19.9-32.3-42.1 7.5 55.3-98.2H26.7V512h183.9V253.7zM210.9 51.1c-9.5-13.5-21.9-27.5-35.2-36.4C162.4 5.7 146.8 0 130.1 0c-16.7.1-31.9 7-43.3 17.8-11.4 10.7-19.3 34.7-19.4 51.8-.1 10 2.8 20.5 8.9 30 7.6 11.9 19.6 22.3 36.2 30.9H0l.3 102.7h210.2V130.5l.4-79.4zm-91.1 47.3c-8.5-5.4-13.7-10.7-16.7-15.6-3-4.8-4-13.2-4-17.4-.1-6.9 3.4-19 9.5-24.7 6-5.7 14.1-9.2 21.4-9.2h.2c9.4.1 18.7 3.2 28 9.4 13.9 9.2 27.1 34.2 36.2 52.6 4.8 9.3 8.4 19.1 10.9 28.6-42.3-4.4-69.7-13.7-85.5-23.7z"/>
  </g>
</svg>
