<svg 
 xmlns="http://www.w3.org/2000/svg"
 xmlns:xlink="http://www.w3.org/1999/xlink"
 width="38px" height="49px">
<path fill-rule="evenodd"  fill="rgb(83, 150, 172)"
 d="M35.431,18.120 C35.278,18.331 35.288,18.621 35.441,18.832 L37.875,22.108 C38.100,22.409 38.008,22.830 37.682,22.990 L34.076,24.954 C33.852,25.075 33.719,25.335 33.770,25.595 L34.514,29.584 C34.575,29.945 34.310,30.285 33.933,30.305 L29.818,30.536 C29.553,30.556 29.329,30.736 29.258,30.987 L28.168,34.895 C28.066,35.245 27.679,35.436 27.332,35.295 L23.523,33.752 C23.278,33.652 22.993,33.712 22.820,33.913 L20.110,36.969 C19.856,37.249 19.428,37.249 19.173,36.979 L16.423,33.962 C16.240,33.772 15.954,33.712 15.710,33.812 L11.920,35.416 C11.574,35.566 11.177,35.375 11.075,35.025 L9.924,31.127 C9.853,30.876 9.619,30.696 9.353,30.686 L5.238,30.515 C4.861,30.506 4.587,30.165 4.647,29.804 L5.330,25.806 C5.381,25.545 5.249,25.285 5.014,25.165 L1.377,23.251 C1.052,23.081 0.950,22.660 1.164,22.359 L3.547,19.052 C3.700,18.842 3.690,18.551 3.537,18.341 L1.102,15.064 C0.889,14.774 0.981,14.353 1.306,14.172 L4.912,12.208 C5.136,12.088 5.269,11.828 5.218,11.567 L4.474,7.579 C4.413,7.218 4.678,6.878 5.055,6.858 L9.170,6.627 C9.435,6.607 9.659,6.427 9.730,6.176 L10.820,2.268 C10.922,1.918 11.309,1.727 11.656,1.868 L15.465,3.411 C15.710,3.511 15.995,3.451 16.168,3.250 L18.878,0.194 C19.132,-0.086 19.560,-0.086 19.815,0.184 L22.565,3.200 C22.748,3.391 23.034,3.451 23.278,3.351 L27.068,1.747 C27.414,1.597 27.811,1.787 27.913,2.138 L29.054,6.046 C29.125,6.297 29.360,6.477 29.624,6.487 L33.740,6.657 C34.117,6.667 34.392,7.008 34.330,7.369 L33.648,11.367 C33.597,11.627 33.730,11.888 33.964,12.008 L37.600,13.922 C37.926,14.092 38.028,14.513 37.814,14.814 L35.431,18.120 ZM19.499,7.589 C13.336,7.589 8.314,12.529 8.314,18.592 C8.314,24.653 13.336,29.594 19.499,29.594 C25.662,29.594 30.684,24.664 30.684,18.592 C30.684,12.529 25.662,7.589 19.499,7.589 ZM26.629,17.389 L23.400,20.075 L24.409,24.112 C24.603,24.874 23.757,25.475 23.085,25.065 L19.499,22.870 L15.913,25.065 C15.241,25.475 14.396,24.874 14.589,24.112 L15.597,20.075 L12.369,17.389 C11.768,16.888 12.083,15.916 12.878,15.856 L17.095,15.556 L18.684,11.707 C18.980,10.986 20.029,10.986 20.324,11.707 L21.913,15.556 L26.131,15.856 C26.925,15.916 27.241,16.888 26.629,17.389 ZM9.435,36.708 C10.036,37.299 10.851,37.650 11.737,37.650 C12.053,37.650 12.359,37.610 12.664,37.520 L15.292,36.738 L17.319,38.572 C17.380,38.632 17.452,38.692 17.523,38.742 L14.264,48.682 C14.151,49.033 13.683,49.113 13.459,48.823 L11.085,45.827 C10.973,45.676 10.779,45.616 10.596,45.666 L6.898,46.729 C6.542,46.829 6.216,46.508 6.328,46.157 L9.435,36.708 ZM23.716,36.738 L26.344,37.520 C26.640,37.600 26.956,37.650 27.271,37.650 C28.157,37.650 28.983,37.299 29.573,36.708 L32.680,46.147 C32.792,46.488 32.466,46.818 32.110,46.718 L28.412,45.656 C28.239,45.606 28.035,45.666 27.923,45.816 L25.550,48.813 C25.315,49.103 24.857,49.023 24.745,48.672 L21.485,38.732 C21.557,38.682 21.618,38.622 21.689,38.562 L23.716,36.738 Z"/>
</svg>