<svg 
 xmlns="http://www.w3.org/2000/svg"
 xmlns:xlink="http://www.w3.org/1999/xlink"
 width="34px" height="35px">
<path fill-rule="evenodd"  fill="rgb(83, 150, 172)"
 d="M33.957,10.442 C33.911,10.617 33.360,12.708 32.429,15.429 L24.490,15.429 C24.011,12.224 21.388,9.685 18.083,9.231 L18.083,-0.007 L24.530,-0.007 C25.051,-0.007 25.496,0.337 25.596,0.833 C25.612,0.903 25.888,2.002 26.947,3.546 C27.957,5.019 29.908,7.209 33.462,9.276 C33.874,9.516 34.075,9.990 33.957,10.442 ZM22.393,16.485 C22.393,19.360 19.983,21.700 17.021,21.700 C14.058,21.700 11.648,19.360 11.648,16.485 C11.648,13.610 14.058,11.270 17.021,11.270 C19.983,11.270 22.393,13.610 22.393,16.485 ZM19.995,14.541 C19.571,14.128 18.882,14.128 18.457,14.541 L16.058,16.869 L15.431,16.130 C15.049,15.679 14.363,15.615 13.899,15.985 C13.435,16.356 13.369,17.021 13.751,17.472 L15.139,19.110 C15.334,19.340 15.620,19.479 15.926,19.493 C15.944,19.494 15.962,19.495 15.979,19.495 C16.267,19.495 16.544,19.384 16.749,19.185 L19.995,16.034 C20.420,15.622 20.420,14.953 19.995,14.541 ZM9.551,15.429 L1.560,15.429 C0.628,12.708 0.077,10.617 0.031,10.442 C-0.087,9.990 0.114,9.516 0.526,9.276 C7.386,5.286 8.383,0.881 8.392,0.837 C8.495,0.346 8.941,-0.007 9.458,-0.007 L15.907,-0.007 L15.907,9.238 C12.626,9.711 10.027,12.241 9.551,15.429 ZM15.932,23.735 L15.932,35.006 C15.591,34.858 15.167,34.627 14.633,34.271 C13.785,33.704 12.802,32.915 11.792,31.990 C10.414,30.729 7.796,28.118 5.736,24.802 C4.403,22.655 3.240,19.991 2.317,17.541 L9.551,17.541 C10.028,20.737 12.640,23.272 15.932,23.735 ZM24.490,17.541 L31.671,17.541 C30.748,19.991 29.586,22.655 28.252,24.802 C26.193,28.118 23.574,30.729 22.196,31.990 C21.186,32.915 20.203,33.704 19.355,34.270 C18.848,34.609 18.440,34.834 18.109,34.983 L18.109,23.735 C21.402,23.272 24.013,20.737 24.490,17.541 Z"/>
</svg>