<svg xmlns="http://www.w3.org/2000/svg" xmlns:xlink="http://www.w3.org/1999/xlink">
  <symbol id="vk" viewBox="0 0 16 9">
    <path d="M409.828 634.87h.956s.29-.032.436-.187c.137-.142.131-.41.131-.41s-.019-1.251.577-1.436c.588-.182 1.341 1.21 2.14 1.746.605.405 1.064.316 1.064.316l2.137-.03s1.118-.067.588-.924c-.043-.07-.31-.635-1.59-1.794-1.34-1.214-1.16-1.016.455-3.116.983-1.278 1.376-2.058 1.253-2.392-.117-.318-.84-.234-.84-.234l-2.404.013s-.178-.023-.311.054c-.13.076-.212.252-.212.252s-.381.99-.89 1.83c-1.07 1.775-1.5 1.869-1.674 1.759-.408-.257-.306-1.033-.306-1.583 0-1.72.268-2.438-.52-2.623-.263-.062-.455-.102-1.124-.11-.858-.008-1.585.004-1.996.2-.274.13-.485.422-.356.439.16.02.52.095.71.348.247.327.238 1.063.238 1.063s.142 2.025-.33 2.276c-.326.173-.77-.18-1.726-1.79-.489-.825-.859-1.737-.859-1.737s-.07-.17-.198-.26c-.154-.111-.37-.146-.37-.146l-2.286.014s-.343.01-.469.155c-.112.13-.009.397-.009.397s1.79 4.086 3.816 6.145c1.86 1.889 3.97 1.765 3.97 1.765z" transform="translate(-402 -626)"/>
  </symbol>
  <symbol id="in" viewBox="0 0 17 17">
    <path d="M469 626.312v6.375a5.313 5.313 0 0 1-5.313 5.313h-6.375a5.313 5.313 0 0 1-5.312-5.313v-6.375a5.313 5.313 0 0 1 5.312-5.312h6.375a5.313 5.313 0 0 1 5.313 5.312zm-1.594 0a3.723 3.723 0 0 0-3.719-3.719h-6.375a3.723 3.723 0 0 0-3.719 3.72v6.374a3.723 3.723 0 0 0 3.72 3.719h6.374a3.723 3.723 0 0 0 3.719-3.719zm-2.656 3.188a4.25 4.25 0 1 1-8.5 0 4.25 4.25 0 0 1 8.5 0zm-1.594 0a2.66 2.66 0 0 0-2.656-2.657 2.66 2.66 0 0 0-2.657 2.657 2.66 2.66 0 0 0 2.657 2.656 2.66 2.66 0 0 0 2.656-2.656zm1.913-5.135a.566.566 0 1 1 0 1.132.566.566 0 0 1 0-1.132z" transform="translate(-452 -621)"/>
  </symbol>
  <symbol id="twitter" viewBox="0 0 512 416">
    <path d="M512 49.248a218.842 218.842 0 0 1-60.48 16.576A104.375 104.375 0 0 0 497.7 7.808a209.767 209.767 0 0 1-66.56 25.408 104.957 104.957 0 0 0-181.568 71.776A108.081 108.081 0 0 0 252 128.928c-87.264-4.256-164.48-46.08-216.352-109.792A104.992 104.992 0 0 0 67.9 159.424 103.659 103.659 0 0 1 20.48 146.5v1.152a105.447 105.447 0 0 0 84.1 103.136 104.763 104.763 0 0 1-27.52 3.456 92.807 92.807 0 0 1-19.872-1.792c13.6 41.568 52.192 72.128 98.08 73.12A210.907 210.907 0 0 1 25.12 370.336 196.6 196.6 0 0 1 0 368.9 295.5 295.5 0 0 0 161.024 416c193.152 0 298.752-160 298.752-298.688 0-4.64-.16-9.12-.384-13.568A209.4 209.4 0 0 0 512 49.248z"/>
  </symbol>
  <symbol id="clock" viewBox="0 0 20 20">
    <path transform="translate(-1148 -121)" d="M1158 121c5.523 0 10 4.477 10 10 0 5.522-4.478 10-10 10-5.523 0-10-4.478-10-10 0-5.523 4.477-10 10-10zm.69 11.222l.002-.012v-7.06a.692.692 0 0 0-1.384 0v5.969l-2.848-1.343a.692.692 0 0 0-.59 1.25l3.835 1.81.012.004a.743.743 0 0 0 .103.035l.036.011a.688.688 0 0 0 .118.013l.025.002a.69.69 0 0 0 .252-.048l.024-.009a.641.641 0 0 0 .103-.056l.024-.017a.633.633 0 0 0 .073-.06l.022-.022a.69.69 0 0 0 .129-.184l.004-.012c.01-.023.018-.048.025-.072.007-.02.014-.04.019-.06.005-.02.006-.04.008-.06.004-.026.008-.053.008-.079z"/>
  </symbol>
  <symbol id="cart" viewBox="0 0 24 22">
    <path transform="translate(-1484 -119)" d="M1507.478 126.836c.288 0 .522.229.522.511a.517.517 0 0 1-.522.511h-.557l-1.585 9.503c-.322 2.143-2.017 3.639-4.123 3.639h-10.714c-2.106 0-3.801-1.496-4.123-3.64l-1.585-9.502h-.269a.517.517 0 0 1-.522-.51c0-.283.234-.512.522-.512h.627a.54.54 0 0 1 .17 0h.816l2.422-3.031a2.707 2.707 0 0 1-.407-3.676c.852-1.145 2.454-1.467 3.699-.744a2.717 2.717 0 0 1 1.105 3.536c-.618 1.28-2.13 1.892-3.491 1.41l-2.002 2.505h16.79l-2.002-2.505c-1.351.476-2.85-.132-3.462-1.403a2.697 2.697 0 0 1 1.098-3.508c1.234-.718 2.824-.398 3.67.737a2.687 2.687 0 0 1-.4 3.648l2.422 3.03h.816a.54.54 0 0 1 .17 0h.915zm-15.13 3.893a.517.517 0 0 0-.522-.511.517.517 0 0 0-.522.51v6.379c0 .282.234.511.522.511a.517.517 0 0 0 .522-.511zm4.03 0a.517.517 0 0 0-.522-.511.517.517 0 0 0-.522.51v6.379c0 .282.233.511.522.511a.517.517 0 0 0 .522-.511zm4.03 0a.517.517 0 0 0-.522-.511.517.517 0 0 0-.522.51v6.379c0 .282.234.511.522.511a.517.517 0 0 0 .522-.511z"/>
  </symbol>
  <symbol id="filter" viewBox="0 0 20 20">
    <path transform="translate(-112 -305)" d="M113.949 324.274v-14.028a2.671 2.671 0 0 1-1.949-2.572 2.662 2.662 0 0 1 2.656-2.674 2.676 2.676 0 0 1 .69 5.262v14.012a.7.7 0 0 1-.708.708.7.7 0 0 1-.706-.708zm-.57-16.6c0 .691.57 1.26 1.26 1.26.69 0 1.258-.569 1.258-1.26 0-.69-.568-1.26-1.259-1.26-.69 0-1.259.57-1.259 1.26zm8.605-2.674a.7.7 0 0 1 .708.708v7.246a2.688 2.688 0 0 1 1.983 2.589 2.686 2.686 0 0 1-1.983 2.588v6.16a.7.7 0 0 1-.708.708.7.7 0 0 1-.707-.708v-6.16a2.67 2.67 0 0 1 0-5.142v-7.281a.7.7 0 0 1 .707-.708zm1.294 10.56c0-.707-.57-1.26-1.26-1.26-.689 0-1.258.57-1.258 1.26 0 .69.57 1.26 1.259 1.26.69 0 1.259-.57 1.259-1.26zm6.76 4.176c1.137.311 1.982 1.346 1.965 2.57a2.665 2.665 0 0 1-2.673 2.676 2.676 2.676 0 0 1-2.673-2.675c0-1.225.828-2.26 1.966-2.571v-14.028a.7.7 0 0 1 .707-.708.7.7 0 0 1 .707.708zm-.69 3.83c.69 0 1.258-.569 1.258-1.26 0-.69-.569-1.26-1.259-1.26s-1.258.57-1.258 1.26c0 .691.569 1.26 1.258 1.26z"/>
  </symbol>
  <symbol id="like" viewBox="0 0 17.7 17">
    <path d="M16.7 5.4c-.2-2.5-2-4.4-4.3-4.4-1.4 0-2.8.8-3.6 2.1C8.1 1.8 6.8 1 5.3 1 3 1 1.3 2.8 1 5.4c0 .1-.1.7.2 1.6.3 1.4 1.1 2.6 2.2 3.6l5.5 5 5.6-5c1.1-1 1.9-2.3 2.2-3.6.1-.9 0-1.5 0-1.6zm0 0" stroke="#fff" stroke-width="2" stroke-miterlimit="10"/>
  </symbol>
  <symbol id="heart" viewBox="0 0 42 39">
    <path d="M41.751 11.6C41.146 4.864 36.409-.022 30.481-.022a11.2 11.2 0 0 0-9.6 5.567 10.783 10.783 0 0 0-9.364-5.567C5.588-.022.853 4.864.246 11.6A12.006 12.006 0 0 0 .6 16.018 18.939 18.939 0 0 0 6.367 25.7l14.509 13.262 14.755-13.254a18.98 18.98 0 0 0 5.769-9.69 12.1 12.1 0 0 0 .351-4.418zm0 0" />
  </symbol>
   <symbol id="tel" viewBox="0 0 18 18">
      <path d="M1286.991 6684.205a.872.872 0 0 1-.267.762l-2.534 2.517a1.413 1.413 0 0 1-.448.324 1.85 1.85 0 0 1-.543.172c-.012 0-.05.004-.114.01a2.45 2.45 0 0 1-.248.01c-.241 0-.632-.042-1.171-.125-.54-.083-1.201-.286-1.982-.61-.781-.325-1.667-.811-2.658-1.458-.99-.649-2.045-1.539-3.163-2.67-.89-.877-1.626-1.716-2.21-2.517a17.65 17.65 0 0 1-1.41-2.222 11.946 11.946 0 0 1-.8-1.849 9.838 9.838 0 0 1-.363-1.43c-.063-.401-.089-.715-.076-.944.013-.229.02-.356.02-.382a1.86 1.86 0 0 1 .17-.543c.09-.185.197-.333.325-.448l2.534-2.536a.842.842 0 0 1 .61-.267c.165 0 .31.048.438.143.127.095.235.212.324.353l2.038 3.87a.93.93 0 0 1 .096.668 1.188 1.188 0 0 1-.324.61l-.934.934a.323.323 0 0 0-.067.124.473.473 0 0 0-.028.143c.05.268.165.573.343.916.152.305.387.676.705 1.115.317.439.768.944 1.353 1.517.571.584 1.08 1.038 1.524 1.362a8.85 8.85 0 0 0 1.115.716c.298.152.527.245.686.276l.238.048c.025 0 .066-.01.124-.029a.313.313 0 0 0 .123-.067l1.086-1.106c.23-.203.496-.305.8-.305.217 0 .388.038.515.114h.02l3.677 2.174c.267.166.425.375.476.63z" transform="translate(-1269 -6670)"/>
  </symbol>
  <symbol id="phone" viewBox="0 0 15 15">
    <path transform="translate(-1840 -28)" d="M1854.993 39.837a.727.727 0 0 1-.223.636l-2.112 2.097a1.22 1.22 0 0 1-.373.27 1.56 1.56 0 0 1-.452.142l-.096.008a1.895 1.895 0 0 1-.206.009c-.2 0-.527-.035-.976-.103-.45-.07-1-.24-1.652-.509-.65-.27-1.39-.676-2.215-1.216-.825-.54-1.704-1.281-2.636-2.225a17.403 17.403 0 0 1-1.842-2.097 14.918 14.918 0 0 1-1.174-1.85 9.951 9.951 0 0 1-.667-1.542 8.178 8.178 0 0 1-.302-1.192 3.93 3.93 0 0 1-.064-.787c.01-.19.016-.296.016-.317.021-.149.069-.3.143-.453.074-.154.164-.278.27-.373l2.112-2.114a.7.7 0 0 1 .508-.223c.138 0 .26.04.365.12.106.08.196.177.27.294l1.7 3.225a.79.79 0 0 1 .079.557.987.987 0 0 1-.27.508l-.778.778a.268.268 0 0 0-.056.104.394.394 0 0 0-.024.12c.043.222.138.476.286.762.127.255.323.564.588.93.264.365.64.786 1.127 1.262.476.488.9.866 1.27 1.137.37.27.68.468.93.596.248.126.438.203.57.23l.199.04a.383.383 0 0 0 .103-.024.248.248 0 0 0 .104-.056l.905-.921a.976.976 0 0 1 .666-.255c.18 0 .323.032.43.095h.015l3.065 1.812c.222.138.354.313.397.525z"/>
  </symbol>
  <symbol id="pin" viewBox="0 0 17 23">
    <path d="M1084 373.324c0 5.696-7.607 14.059-7.93 14.412a.776.776 0 0 1-1.14 0c-.323-.353-7.93-8.716-7.93-14.412 0-4.59 3.813-8.324 8.5-8.324 4.687 0 8.5 3.734 8.5 8.324zm-4.224 0c0-2.31-1.918-4.188-4.276-4.188-2.358 0-4.277 1.879-4.277 4.188 0 2.31 1.919 4.188 4.277 4.188s4.276-1.879 4.276-4.188z" transform="translate(-1067 -365)"/>
  </symbol>
  <symbol id="return" viewBox="0 0 24 24">
    <path id="a" d="M422 1387.703v22.594a.703.703 0 0 1-.703.703h-22.594a.703.703 0 0 1-.703-.703v-22.594c0-.388.315-.703.703-.703h22.594c.388 0 .703.315.703.703zm-13.556.703v4.619h3.112v-4.619zm12.15 0h-7.632v5.322a.703.703 0 0 1-.703.703h-4.518a.703.703 0 0 1-.704-.703v-5.322h-7.63v21.188h21.187zm-6.075 11.02a2.966 2.966 0 0 1 2.962 2.963 2.966 2.966 0 0 1-2.962 2.962H410a.703.703 0 0 1 0-1.406h4.519c.858 0 1.556-.698 1.556-1.556 0-.858-.698-1.556-1.556-1.556h-9.6l1.06 1.059a.703.703 0 1 1-.995.994l-2.26-2.26a.703.703 0 0 1 0-.994l2.26-2.259a.703.703 0 1 1 .994.994l-1.059 1.06z" transform="translate(-398 -1387)"/>
  </symbol>
  <symbol id="user" viewBox="0 0 18 24">
    <path id="a" d="M1243.204 110.755c-2.49 0-4.51-2.452-4.51-5.478 0-3.025.663-5.477 4.51-5.477 3.848 0 4.511 2.452 4.511 5.477 0 3.026-2.02 5.478-4.51 5.478zm-8.519 8.363c-.002-.051-.001-.184 0 0zm17.029-.22c.005.336.008.395.01.365v.41s-1.255 2.527-8.52 2.527c-7.264 0-8.518-2.528-8.518-2.528l-.001-.554c.001.05.005.027.013-.392.096-5.131.826-6.61 6.036-7.55 0 0 .742.944 2.47.944 1.729 0 2.47-.945 2.47-.945 5.268.95 5.957 2.452 6.04 7.722z" transform="translate(-1234 -99)"/>
  </symbol>
  <symbol id="search" viewBox="0 0 24 24">
    <path transform="translate(-104 -114)" d="M119.352 118.296c2.713 2.713 3.004 6.94.884 9.99.304.064.593.209.829.444l4.437 4.44a1.653 1.653 0 0 1-2.337 2.336l-4.436-4.44a1.663 1.663 0 0 1-.448-.829c-3.046 2.12-7.272 1.83-9.989-.884-3.046-3.05-3.046-8.008 0-11.057 3.049-3.05 8.011-3.05 11.06 0zm-1.404 9.657a5.85 5.85 0 0 0 0-8.257 5.845 5.845 0 0 0-8.253 0 5.85 5.85 0 0 0 0 8.257 5.845 5.845 0 0 0 8.253 0z"/>
  </symbol>
  <symbol id="menu" viewBox="0 0 28 19">
    <path transform="translate(-33 -115)" d="M33.01 130.827h27.995v3.168H33.01zm0-7.91h27.995v3.167H33.01zm27.995-7.91v3.167H33.01v-3.168z"/>
  </symbol>
  <symbol id="close" viewBox="0 0 19 19">
    <path d="M17 3.3L15.7 2 9.5 8.2 3.3 2 2 3.3l6.2 6.2L2 15.7 3.3 17l6.2-6.2 6.2 6.2 1.3-1.3-6.2-6.2zm0 0" fill-rule="evenodd"/>
  </symbol>
</svg>
